<svg xmlns="http://www.w3.org/2000/svg" version="1.1" xmlns:xlink="http://www.w3.org/1999/xlink" xmlns:svgjs="http://svgjs.dev/svgjs" viewBox="0 0 1920 1080" class="overflow-hidden rounded-md drop-shadow-lg transition duration-300" style="overflow: hidden; height: 85vh;"><rect width="1920" height="1080" fill="#1f46f7"/><g clip-path="url(&quot;#SvgjsClipPath1713&quot;)"><g transform="matrix(0.6094071538681856,0.9752553105798899,-0.9752553105798899,0.6094071538681856,886.869176667243,-688.5266926297622)"><path d="M0,-1080C-1.6284979759983642,-984.0962837435377,2.0004303375688526,-671.7049412773915,-9.770987855990185,-504.57770246122584C-21.54240604954922,-337.45046364506015,-72.0073101322557,-238.4967139659221,-70.62850916135423,-77.23656710300605C-69.24970819045276,84.02357975991,-7.773774256720522,273.293312973654,-1.4981820305813756,462.9831787162706C4.777410195557771,652.6730444588871,-20.74373311227079,865.8610470504883,-32.974955804519354,1060.9026273526931C-45.20617849676792,1255.9442076548978,-80.38134415149264,1450.0497650882814,-74.88551818407275,1633.2326605294993C-69.38969221665286,1816.4155559707172,-12.480919697345458,2072.2054434215834,0,2160L 1920 2160 L 1920 -1080 Z" fill="url(&quot;#SvgjsLinearGradient1711&quot;)"/><path d="M960,-1080C952.5999719277344,-992.2937451868561,903.7325975034371,-749.7128179333672,915.5998315664064,-553.7624711211365C927.4670656293756,-357.8121243089058,1011.3126941985748,-90.35540895179594,1031.2034043778153,95.702080873384C1051.0941145570557,281.75957069856395,1062.975908156206,403.58157985917137,1034.9440926418492,562.5824678299433C1006.9122771274925,721.5833558007153,867.3665239048478,870.6689885523053,863.0125112916749,1049.7074086980156C858.6584986785019,1228.7458288437258,992.655435511424,1451.7642234872071,1008.8200169628116,1636.8129887042046C1024.9845984141991,1821.861753921202,968.136669493802,2072.802164784034,960,2160L 1920 2160 L 1920 -1080 Z" fill="url(&quot;#SvgjsLinearGradient1712&quot;)"/></g></g><defs><linearGradient x1="0.1" y1="0" x2="0" y2="1" id="SvgjsLinearGradient1711"><stop stop-color="#1f46f7" offset="0"/><stop stop-color="#1f6af7" offset="0"/></linearGradient><linearGradient x1="0.1" y1="0" x2="0" y2="1" id="SvgjsLinearGradient1712"><stop stop-color="#c9d3fd" offset="0"/><stop stop-color="#c9dcfd" offset="0.5"/></linearGradient><clipPath id="SvgjsClipPath1713"><rect width="1920" height="1080"/></clipPath></defs></svg>